<svg width="272" height="372" viewBox="0 0 272 372" fill="none" xmlns="http://www.w3.org/2000/svg">
<path d="M121.856 97.8084C117.685 88.3723 106.805 81.6581 98.464 83.4728C87.4027 85.1059 81.056 95.9937 84.1387 106.337C85.952 106.156 89.5787 116.136 94.2933 117.951L108.619 121.762C104.267 119.584 92.48 110.511 92.48 100.53C93.3867 89.0981 105.355 88.3723 113.152 98.8971L121.856 97.8084Z" fill="#D30012" stroke="#82000A" stroke-width="0.25" stroke-linejoin="round"/>
<path d="M120.768 97.8091C117.323 88.9174 108.256 81.6589 98.6452 83.4735C88.8532 84.3808 81.9625 93.8169 83.5945 103.797C84.5012 109.423 87.7652 115.23 90.6665 118.133L102.453 121.036C97.0132 117.226 88.8532 109.241 88.8532 100.894C90.4852 86.9213 105.173 88.1915 112.427 98.8979L120.768 97.8091Z" fill="#FF162A" stroke="#990013" stroke-width="0.25" stroke-linejoin="round"/>
<path d="M85.408 96.3575C86.6773 92.3653 92.1173 83.2922 102.635 83.6551C109.707 84.018 116.235 89.6434 119.499 96.1761" stroke="#FF7885" stroke-width="0.25" stroke-linejoin="round"/>
<path d="M109.888 120.854C102.091 119.947 89.216 117.951 83.232 115.047C65.0987 106.881 54.5814 97.4453 38.9867 95.4492C19.584 93.2717 4.53338 102.345 3.62671 118.132C4.17071 136.46 19.9467 152.066 46.9654 151.159C58.752 150.614 69.4507 147.348 81.7814 144.626C87.9467 143.356 98.6454 142.448 106.987 142.811L107.712 132.105C99.1894 131.742 90.1227 132.105 81.056 133.919C68.544 136.279 54.5814 141.722 38.9867 142.085C25.7494 142.267 14.3254 136.279 12.6934 127.024C9.79204 116.862 18.8587 108.878 25.2054 106.156C30.1014 104.522 36.8107 105.248 42.2507 106.156C53.312 108.878 62.9227 115.41 75.9787 121.399C84.5014 125.391 97.376 129.564 108.619 131.379L109.888 120.854Z" fill="#D30012" stroke="#82000A" stroke-width="0.25" stroke-linejoin="round"/>
<path d="M110.976 121.035C103.541 119.947 90.8479 117.951 84.3199 115.41C66.1866 107.244 54.5813 97.4452 40.2559 95.6305C20.3093 92.7271 5.43992 101.437 3.62659 116.862C2.17592 135.371 17.9519 152.61 46.9653 151.34C57.8453 150.614 69.4506 147.166 81.7813 144.444C88.3093 143.174 98.6453 142.267 106.805 142.448L107.712 132.105C99.5519 131.742 90.1226 132.468 81.0559 133.738C68.5439 136.097 54.5813 141.541 38.9866 142.085C25.2053 142.448 14.3253 136.823 11.0613 127.024C7.61592 116.862 16.1386 106.337 25.2053 105.248C30.1013 104.522 34.4533 105.067 39.8933 105.974C50.5919 108.696 60.7466 114.503 73.6213 120.491C80.8746 124.302 95.1999 129.02 108.619 131.56L110.976 121.035Z" fill="#FF162A" stroke="#990013" stroke-width="0.25" stroke-linejoin="round"/>
<path d="M5.80273 109.604C9.9734 100.894 21.5787 93.6356 37.1734 95.4503C49.6854 96.539 60.7467 102.89 73.8027 109.967C85.5894 116.319 97.7387 119.948 110.613 122.307" stroke="#FF7885" stroke-width="0.25" stroke-linejoin="round"/>
<path d="M126.208 154.245C120.587 161.322 109.707 171.665 104.811 172.391C99.9146 173.117 97.0133 166.221 99.5519 160.414C101.547 155.333 106.805 151.523 109.888 150.434L106.08 142.812C100.64 143.357 92.2986 150.797 90.1226 160.596C88.6719 167.673 92.8426 179.831 104.992 180.738C116.235 180.92 124.395 170.395 129.653 163.136L126.208 154.245Z" fill="#D30012" stroke="#82000A" stroke-width="0.25" stroke-linejoin="round"/>
<path d="M129.109 148.801C123.488 155.878 113.515 169.851 104.811 172.391C99.9147 173.48 97.0134 166.221 99.5521 160.414C101.365 155.515 106.08 152.249 108.8 150.797L106.08 142.812C100.821 143.357 92.2987 150.797 90.1227 160.596C88.6721 167.673 92.2987 179.468 104.085 180.557C115.147 180.92 122.4 172.391 130.379 162.592V148.801H129.109Z" fill="#FF162A" stroke="#990013" stroke-width="0.25" stroke-linejoin="round"/>
<path d="M95.0186 176.927C89.5786 172.391 88.3092 164.044 90.6666 157.329C93.2052 150.615 98.2826 144.627 104.992 142.631" stroke="#FF7885" stroke-width="0.25" stroke-linejoin="round"/>
<path d="M132.736 62.4226C135.275 46.2724 137.995 31.7553 137.995 19.9602C137.995 15.6051 136.907 10.7056 136.181 10.887C133.461 11.6129 129.835 17.2382 129.835 29.0334C129.835 40.647 133.28 58.9748 133.461 74.5807L126.752 74.3992C125.845 53.5309 120.587 23.7709 124.939 13.4275C127.296 5.62458 133.28 1.81385 138.176 3.08409C143.979 4.35434 147.605 7.25775 146.155 23.408C145.248 38.1065 138.72 70.0441 137.813 90.0051L133.28 106.155L122.581 98.7153C125.845 84.5612 122.763 66.0519 121.493 46.4538" fill="#D30012"/>
<path d="M132.736 62.4226C135.275 46.2724 137.995 31.7553 137.995 19.9602C137.995 15.6051 136.907 10.7056 136.181 10.887C133.461 11.6129 129.835 17.2382 129.835 29.0334C129.835 40.647 133.28 58.9748 133.461 74.5807L126.752 74.3992C125.845 53.5309 120.587 23.7709 124.939 13.4275C127.296 5.62458 133.28 1.81385 138.176 3.08409C143.979 4.35434 147.605 7.25775 146.155 23.408C145.248 38.1065 138.72 70.0441 137.813 90.0051L133.28 106.155L122.581 98.7153C125.845 84.5612 122.763 66.0519 121.493 46.4538" stroke="#82000A" stroke-width="0.25" stroke-linejoin="round"/>
<path d="M132.555 61.6979C135.456 44.6403 138.539 30.1232 137.995 19.9613C137.995 15.6062 137.088 10.8881 136.181 10.8881C133.461 11.614 129.835 17.2393 129.835 29.0344C129.835 40.6481 132.917 89.6438 133.099 105.25L122.581 98.7164C123.909 78.0301 119.136 23.772 123.488 13.4286C125.845 5.62566 130.379 2.72225 135.275 2.72225C141.259 1.99639 147.243 4.53688 147.061 17.2393C147.061 31.9379 138.901 69.8637 137.813 89.8247L131.467 106.157L122.581 98.7164C125.845 84.5623 122.763 66.053 121.493 46.4549" fill="#FF162A"/>
<path d="M132.555 61.6979C135.456 44.6403 138.539 30.1232 137.995 19.9613C137.995 15.6062 137.088 10.8881 136.181 10.8881C133.461 11.614 129.835 17.2393 129.835 29.0344C129.835 40.6481 132.917 89.6438 133.099 105.25L122.581 98.7164M122.581 98.7164C123.909 78.0301 119.136 23.772 123.488 13.4286C125.845 5.62566 130.379 2.72225 135.275 2.72225C141.259 1.99639 147.243 4.53688 147.061 17.2393C147.061 31.9379 138.901 69.8637 137.813 89.8247L131.467 106.157L122.581 98.7164ZM122.581 98.7164C125.845 84.5623 122.763 66.053 121.493 46.4549" stroke="#990013" stroke-width="0.25" stroke-linejoin="round"/>
<path d="M122.581 16.3315C124.213 9.2544 127.659 3.08465 135.093 3.08465C141.44 2.72172 145.248 4.53636 146.336 11.7949" stroke="#FF7885" stroke-width="0.25" stroke-linejoin="round"/>
<path d="M131.648 99.8039C135.093 89.0976 144.16 78.2098 158.667 77.8469C168.64 77.4839 178.432 86.1942 177.888 99.0781C177.707 105.974 174.987 111.418 171.179 113.232L161.205 110.873C165.195 106.518 168.459 108.151 169.909 99.8039C170.272 94.1786 167.189 87.283 159.573 86.92C147.605 86.92 142.528 99.6225 140.715 104.522L131.648 99.8039Z" fill="#D30012" stroke="#82000A" stroke-width="0.25" stroke-linejoin="round"/>
<path d="M128.747 105.249C132.192 94.543 143.435 78.0299 157.941 77.8484C167.915 77.304 177.888 86.0143 177.888 97.0835C177.888 103.616 175.893 109.786 173.173 111.964L161.387 111.782C165.739 108.334 168.64 108.153 169.728 100.713C170.453 95.2689 166.645 86.9216 158.848 86.9216C148.512 86.9216 141.077 101.076 137.632 108.697L128.747 105.249Z" fill="#FF162A" stroke="#990013" stroke-width="0.25" stroke-linejoin="round"/>
<path d="M145.973 82.3849C149.781 79.663 155.04 77.3039 161.205 77.8483C167.189 78.2112 175.893 83.2922 177.525 93.4542" stroke="#FF7885" stroke-width="0.25" stroke-linejoin="round"/>
<path d="M157.035 117.951C164.107 117.951 172.448 119.039 184.053 116.136C205.995 111.781 223.04 99.6228 239.723 95.4491C256.405 91.4569 268.736 98.7155 268.555 113.233C268.373 128.657 256.587 138.637 236.64 139C225.941 139 215.061 137.73 205.632 135.915C192.032 133.194 178.613 129.927 156.853 128.657L157.035 122.669C178.432 123.395 193.301 127.75 206.72 129.927C215.968 131.742 225.035 133.556 234.645 133.375C247.52 133.194 259.307 129.564 260.213 117.225C260.939 105.43 252.779 99.8043 237.547 102.526C223.221 105.43 206.901 115.592 188.768 119.765C178.976 122.487 165.92 123.213 155.947 122.487L157.035 117.951Z" fill="#D30012" stroke="#82000A" stroke-width="0.25" stroke-linejoin="round"/>
<path d="M158.667 111.782C164.832 112.327 172.448 113.415 184.053 110.512C205.995 106.157 222.133 96.3577 236.64 93.2729C254.773 88.7363 268.192 96.1763 268.555 110.512C269.099 125.936 258.219 139.546 233.92 142.449C224.309 142.449 216.512 141.724 205.632 139.727C192.395 137.187 181.515 135.372 155.947 131.562L157.035 122.67C178.432 123.396 193.301 127.751 206.72 129.928C215.968 131.743 225.035 133.558 234.645 133.376C247.52 133.195 258.581 129.566 260.032 116.137C261.301 104.342 252.779 99.6241 239.179 102.346C225.035 105.431 210.528 113.778 192.395 118.859C182.24 121.581 171.541 122.488 156.853 121.763L158.667 111.782Z" fill="#FF162A" stroke="#990013" stroke-width="0.25" stroke-linejoin="round"/>
<path d="M267.285 105.431C264.565 97.0834 256.405 90.9137 244.981 91.821C233.376 92.5469 221.227 98.7166 209.259 103.435C198.379 108.153 181.515 113.234 170.272 113.234" stroke="#FF7885" stroke-width="0.25" stroke-linejoin="round"/>
<path d="M145.248 149.89C144.885 156.241 145.248 161.685 149.6 167.673C153.952 174.206 160.48 177.654 167.733 176.928C174.987 176.202 181.515 170.032 181.333 159.507C181.333 151.704 178.432 136.098 157.035 128.84L160.48 139.183C168.459 144.264 172.992 149.89 172.992 157.874C172.992 162.229 170.272 168.943 163.381 168.58C159.392 168.036 153.952 159.507 150.325 153.337L145.248 149.89Z" fill="#D30012" stroke="#82000A" stroke-width="0.25" stroke-linejoin="round"/>
<path d="M145.248 149.89C144.885 156.241 145.248 160.596 149.6 166.947C153.952 173.48 160.48 176.746 167.733 176.02C174.987 175.294 181.333 169.851 181.333 158.781C181.333 151.341 178.613 136.098 157.035 128.84L160.48 138.094C168.459 143.175 172.992 148.982 172.992 156.967C172.992 161.322 170.272 168.943 163.381 168.58C159.392 168.036 154.133 160.414 150.325 154.245L145.248 149.89Z" fill="#FF162A" stroke="#990013" stroke-width="0.25" stroke-linejoin="round"/>
<path d="M147.243 155.332C147.968 159.506 152.501 173.115 164.832 175.112C171.36 176.019 179.701 171.664 180.245 161.32" stroke="#FF7885" stroke-width="0.25" stroke-linejoin="round"/>
<path d="M134.912 108.697C132.373 105.068 125.845 97.4465 116.235 97.8094C110.432 97.8094 107.168 105.068 109.707 109.786C113.333 105.431 120.587 105.975 124.395 107.064C127.659 107.971 131.467 109.967 134.187 111.782L134.912 108.697Z" fill="#FF162A" stroke="#990013" stroke-width="0.25" stroke-linejoin="round"/>
<path d="M127.659 146.803C135.093 148.073 145.067 149.707 153.227 155.332C157.579 157.147 155.947 148.799 157.035 146.259C156.853 141.722 151.232 141.722 143.435 139.726C138.72 138.637 133.461 137.186 128.747 137.186L127.659 146.803Z" fill="#FF162A" stroke="#990013" stroke-width="0.25" stroke-linejoin="round"/>
<path d="M129.653 125.391L128.928 135.371C134.368 137.004 146.155 138.819 154.315 141.722C159.392 143.537 160.661 138.819 160.48 136.097C160.299 131.56 156.853 128.657 148.512 127.024C142.528 126.116 135.093 125.209 129.653 125.391Z" fill="#FF162A" stroke="#990013" stroke-width="0.25" stroke-linejoin="round"/>
<path d="M133.28 124.483L134.912 111.599C136.181 104.341 137.632 100.53 144.885 101.8C151.413 103.433 150.325 106.155 148.512 113.414L144.885 125.39L133.28 124.483Z" fill="#FF162A" stroke="#990013" stroke-width="0.25" stroke-linejoin="round"/>
<path d="M152.501 127.751C156.853 125.211 160.48 113.415 160.48 108.879C158.848 106.338 152.501 103.616 149.6 105.975L145.067 125.211L152.501 127.751Z" fill="#FF162A" stroke="#990013" stroke-width="0.25" stroke-linejoin="round"/>
<path d="M112.427 119.766C109.707 123.395 106.08 136.097 106.987 144.626C107.712 153.155 113.152 158.78 122.581 157.147L125.301 153.336C120.587 154.244 117.685 153.518 116.235 150.796C114.24 142.63 120.405 127.931 121.493 119.766H112.427Z" fill="#D30012" stroke="#82000A" stroke-width="0.25" stroke-linejoin="round"/>
<path d="M114.421 119.039C111.701 122.668 106.08 136.822 107.712 144.988C108.981 153.336 113.152 156.783 121.493 156.058L126.208 153.154C122.581 151.522 119.68 151.522 118.773 147.892C116.96 139.727 122.219 127.205 124.213 119.039H114.421Z" fill="#FF162A" stroke="#990013" stroke-width="0.25" stroke-linejoin="round"/>
<path d="M123.85 119.766C121.325 123.547 117.258 137.571 118.773 146.078C119.419 149.707 118.773 150.614 126.026 152.429L129.533 147.892C126.166 148.271 129.148 142.302 129.532 135.485C130.416 127.163 129.574 128.84 131.426 120.333L123.85 119.766Z" fill="#FF162A" stroke="#990013" stroke-width="0.25" stroke-linejoin="round"/>
<path d="M103.541 328.629C100.64 328.267 98.6453 327.359 98.6453 333.166C97.7387 338.247 99.7333 343.691 102.635 347.32L98.1013 365.466L106.261 368.188L110.795 354.76C116.96 352.22 118.955 347.32 118.592 342.239C118.592 339.154 116.235 332.077 113.515 331.17L116.96 314.657L125.845 260.218L137.088 184.185L141.259 148.981L131.467 147.166L127.115 186.725L120.587 227.917L111.701 288.526L108.619 312.298L103.541 328.629Z" fill="#FF162A" stroke="#990013" stroke-width="0.25" stroke-linejoin="round"/>
<path d="M175.168 334.075C171.541 334.982 170.272 337.341 171.36 343.692C171.541 347.321 172.992 349.136 172.992 349.136L167.915 362.746C167.008 367.282 169.365 369.46 174.805 369.46L176.619 368.19L181.333 355.487C183.872 355.487 187.499 353.128 187.68 350.406C189.312 349.318 191.488 349.499 190.581 342.785C189.675 336.615 186.048 330.082 182.24 330.99C180.427 320.102 178.432 307.399 174.261 292.882C165.92 264.03 156.128 228.463 149.781 199.429C147.061 185.819 145.248 168.036 145.248 151.704L140.533 150.434C139.445 170.395 138.539 179.649 142.347 197.796C149.6 231.185 160.661 271.107 169.547 303.77C172.267 314.839 173.173 326.635 175.168 334.075Z" fill="#FF162A" stroke="#990013" stroke-width="0.25" stroke-linejoin="round"/>
<path d="M100.459 367.646C102.453 369.098 105.355 368.553 105.899 367.283C104.448 367.283 103.36 364.924 99.9146 365.468L100.459 367.646Z" stroke="#E1E1E1" stroke-width="0.25" stroke-linejoin="round"/>
<path d="M98.8267 342.965C101.547 344.598 107.168 343.691 112.245 342.784C115.328 342.058 114.421 334.618 112.608 331.17L111.339 334.618L100.64 337.34L98.8267 342.965Z" fill="#D30012" stroke="#82000A" stroke-width="0.25" stroke-linejoin="round"/>
<path d="M99.9146 343.146L100.64 347.501C102.453 354.941 114.421 357.3 118.048 347.32C120.405 340.424 116.96 333.166 113.515 330.988L112.608 334.073C113.515 336.614 114.421 341.332 112.245 342.239C108.981 343.691 104.267 344.054 99.9146 343.146Z" fill="#FF162A" stroke="#990013" stroke-width="0.25" stroke-linejoin="round"/>
<path d="M103.541 328.631C101.365 327.361 98.1013 328.268 98.1013 333.168C97.1947 338.249 99.552 344.6 103.179 342.241C106.08 340.971 113.152 342.967 114.421 340.426C116.053 336.434 114.421 331.898 112.608 330.083C110.795 328.268 106.261 327.361 103.541 328.631Z" fill="#FF162A" stroke="#990013" stroke-width="0.25" stroke-linejoin="round"/>
<path d="M172.448 348.591C173.355 350.042 176.619 349.317 179.339 347.32C182.24 345.687 185.141 345.869 190.219 342.965L188.768 337.521H177.888L171.179 340.425L172.448 348.591Z" fill="#D30012" stroke="#82000A" stroke-width="0.25" stroke-linejoin="round"/>
<path d="M108.619 119.765C107.168 116.862 108.619 107.244 118.592 107.062C123.488 107.062 129.472 109.784 134.006 111.781L133.462 121.58C130.379 120.491 126.39 119.039 119.499 119.039C115.328 119.039 109.888 122.668 108.619 119.765Z" fill="#FF162A" stroke="#990013" stroke-width="0.25" stroke-linejoin="round"/>
<path d="M173.173 348.592C174.805 349.499 180.427 347.322 182.24 345.689C184.053 344.963 188.768 345.507 190.581 343.692C191.488 342.785 190.581 336.797 184.779 331.353C182.24 329.175 176.075 332.805 175.168 334.075C171.541 334.982 169.728 337.341 171.541 345.507L173.173 348.592Z" fill="#FF162A" stroke="#990013" stroke-width="0.25" stroke-linejoin="round"/>
<path d="M175.168 348.229C174.08 353.129 179.52 355.488 182.24 355.488C184.053 355.488 187.499 353.129 187.68 350.407C190.4 349.136 191.488 348.229 190.581 342.785L175.168 348.229Z" fill="#FF162A" stroke="#990013" stroke-width="0.25" stroke-linejoin="round"/>
<path d="M108.8 330.445C110.795 331.897 113.515 336.434 112.245 340.426" stroke="#990013" stroke-width="0.25" stroke-linejoin="round"/>
<path d="M175.168 341.332C179.339 341.332 184.779 334.799 186.048 335.525" stroke="#82000A" stroke-width="0.25" stroke-linejoin="round"/>
<path d="M98.8267 331.351C99.7333 329.174 102.453 328.629 105.355 330.444" stroke="#FF7885" stroke-width="0.25" stroke-linejoin="round"/>
</svg>
